<?xml version="1.0" encoding="UTF-8"?><svg id="Layer_1" xmlns="http://www.w3.org/2000/svg" viewBox="0 0 128 128"><defs><style>.cls-1{fill:#bd3931;stroke:#000;stroke-miterlimit:10;}</style></defs><path class="cls-1" d="M66.17629,49.99127c0,5.25694-2.23891,9.73519-6.03564,13.6291-4.47825,3.79673-10.51389,6.03521-18.88604,6.71716h-7.59346v26.47907h-15.08931V28.86589h12.07171c2.23891,0,19.76192-1.55739,29.49711,7.59346,3.79673,2.92043,6.03564,8.17737,6.03564,13.53192ZM51.08698,49.99127c0-1.46064-.68152-2.33651-1.46021-3.11521-2.82325-2.04456-10.61107-2.82325-15.96561-2.92086v11.48736c5.35455.38956,13.14236-.48674,15.96561-3.21239.7787-.68152,1.46021-.68152,1.46021-2.23891Z"/><path class="cls-1" d="M104.1882,99.23455l-3.89391-13.33714h-23.16908l-3.60237,13.33714-13.14193-4.47867,15.38127-56.17054v-8.46976h24.92168v7.59346l16.74431,57.04684-13.23996,4.47867ZM81.11629,71.00287h14.89453l-7.59346-25.99276h-.29153l-7.00954,25.99276Z"/></svg>